<svg id="Outlines_-_Full_Color" data-name="Outlines - Full Color" xmlns="http://www.w3.org/2000/svg" xmlns:xlink="http://www.w3.org/1999/xlink" viewBox="0 0 242.04 257"><defs><style>.cls-1{fill:none;}.cls-2{clip-path:url(#clip-path);}.cls-3{fill:#ff7a59;}</style><clipPath id="clip-path"><rect class="cls-1" x="42.87" y="46.9" width="156.42" height="163.35"/></clipPath></defs><title>sprocket-web-color_sprocket-black-web</title><g id="Sprocket"><g class="cls-2"><g class="cls-2"><path class="cls-3" d="M162.79,101.25V82a14.84,14.84,0,0,0,8.56-13.38v-.45a14.87,14.87,0,0,0-14.83-14.83h-.45a14.87,14.87,0,0,0-14.83,14.83v.45A14.84,14.84,0,0,0,149.8,82v19.29a42.06,42.06,0,0,0-20,8.8L76.86,68.86a16.89,16.89,0,1,0-7.91,10.29L121,119.67a42.18,42.18,0,0,0,.65,47.56l-15.84,15.84a13.6,13.6,0,0,0-3.93-.64,13.75,13.75,0,1,0,13.75,13.75,13.56,13.56,0,0,0-.64-3.93l15.67-15.67a42.25,42.25,0,1,0,32.1-75.33m-6.49,63.42A21.68,21.68,0,1,1,178,143a21.68,21.68,0,0,1-21.68,21.68"/></g></g></g></svg>