<?xml version="1.0" encoding="UTF-8"?>
<svg width="256px" height="256px" viewBox="0 0 256 256" version="1.1" xmlns="http://www.w3.org/2000/svg" xmlns:xlink="http://www.w3.org/1999/xlink">
    <!-- Generator: Sketch 61.2 (89653) - https://sketch.com -->
    <title>Artboard 2</title>
    <desc>Created with Sketch.</desc>
    <defs>
        <linearGradient x1="50%" y1="100%" x2="50%" y2="0%" id="linearGradient-1">
            <stop stop-color="#F2F4F7" offset="0%"></stop>
            <stop stop-color="#FFFFFF" offset="100%"></stop>
        </linearGradient>
        <rect id="path-2" x="0" y="0" width="256" height="256"></rect>
    </defs>
    <g id="Artboard-2" stroke="none" stroke-width="1" fill="none" fill-rule="evenodd">
        <g id="Icon">
            <mask id="mask-3" fill="white">
                <use xlink:href="#path-2"></use>
            </mask>
            <use fill="url(#linearGradient-1)" xlink:href="#path-2"></use>
        </g>
        <g id="whatsapp-(1)" fill-rule="nonzero">
            <rect id="Rectangle" fill="#1BD741" x="0" y="0" width="255.848982" height="255.848982"></rect>
            <g id="Group" transform="translate(38.175439, 38.175439)" fill="#FFFFFF">
                <path d="M0.277333333,179.317895 L12.8095439,134.807579 C4.75059649,121.116632 0.507508772,105.539368 0.507508772,89.5371228 C0.507508772,40.2655439 40.5928421,0.180210526 89.8644211,0.180210526 C139.136,0.180210526 179.220772,40.2655439 179.220772,89.5371228 C179.220772,138.808702 139.136,178.894035 89.8644211,178.894035 C74.5117193,178.894035 59.4784561,174.964211 46.1793684,167.502035 L0.277333333,179.317895 Z M48.5260351,151.245474 L51.261193,152.915649 C62.8564211,159.994386 76.2054737,163.73614 89.8644211,163.73614 C130.777825,163.73614 164.062877,130.450526 164.062877,89.5371228 C164.062877,48.6237193 130.777825,15.3381053 89.8644211,15.3381053 C48.9510175,15.3381053 15.6654035,48.6237193 15.6654035,89.5371228 C15.6654035,103.792842 19.7170526,117.636491 27.3813333,129.571368 L29.2232982,132.439579 L22.0064561,158.07214 L48.5260351,151.245474 Z" id="Shape"></path>
                <path d="M64.7629474,47.9477895 L58.9647719,47.6317193 C57.1435789,47.5323509 55.357193,48.1409123 53.9806316,49.3367018 C51.1696842,51.7776842 46.6750877,56.4968421 45.2945965,62.6464561 C43.2359298,71.8158596 46.4174035,83.0439298 54.6515088,94.272 C62.885614,105.50007 78.2304561,123.464982 105.364772,131.137684 C114.108632,133.610105 120.986947,131.943298 126.293895,128.548491 C130.497123,125.85993 133.394526,121.544421 134.438737,116.665825 L135.364491,112.341895 C135.658667,110.967579 134.960842,109.573053 133.684211,108.984702 L114.088421,99.9522807 C112.816281,99.3661754 111.307789,99.7367018 110.452211,100.845474 L102.759298,110.818246 C102.178246,111.571649 101.183439,111.870316 100.285193,111.554807 C95.0169825,109.703298 77.3698246,102.312421 67.6867368,83.6603509 C67.266807,82.8513684 67.3712281,81.8694737 67.9668772,81.1795088 L75.3190175,72.6742456 C76.0701754,71.8057544 76.2599298,70.5847018 75.8085614,69.5292632 L67.3616842,49.7672982 C66.912,48.7152281 65.9042807,48.0101053 64.7629474,47.9477895 Z" id="Path"></path>
            </g>
        </g>
    </g>
</svg>
