<svg width="563" height="566" viewBox="0 0 563 566" fill="none" xmlns="http://www.w3.org/2000/svg">
<path d="M186.47 70.1996C225.764 52.3508 270.12 46.2236 313.01 51.9512C356.567 57.6788 398.258 76.3268 431.558 104.965C463.526 131.871 487.902 167.569 501.355 206.996C516.806 251.884 518.005 301.568 504.818 346.856C490.156 397.159 459.064 441.099 416.507 471.664C389.23 491.184 358.062 504.587 325.131 510.958C269.187 521.614 209.78 511.225 161.295 481.654C158.232 480.322 155.301 476.992 151.705 478.458L66.5902 500.436L89.2342 417.319C90.5662 414.388 87.9022 411.991 86.5702 409.327C60.8626 370.166 47.5426 323.013 48.8746 276.127C50.2066 180.223 111.479 104.299 186.071 69.6668" fill="#40C351"/>
<path d="M200.2 150.514C206.46 150.647 210.589 156.241 212.987 161.17C220.979 178.486 227.372 196.335 234.965 213.784C236.563 217.38 237.629 221.376 236.297 225.239C232.301 236.561 222.977 244.686 215.518 253.744C212.854 256.807 213.12 261.203 215.251 264.4C235.731 304.184 270.817 334.496 313.153 348.982C317.149 350.713 321.944 350.314 324.742 346.851C332.729 337.937 340.285 328.647 347.386 319.012C353.513 311.02 358.841 313.284 366.833 316.614L417.982 341.256C421.978 342.988 425.974 345.918 425.574 350.58C428.238 385.212 397.202 412.119 364.702 413.184C280.786 407.057 223.51 360.437 182.218 306.624C168.631 287.71 154.246 268.662 146.786 246.151C139.727 226.438 139.46 203.927 147.852 184.48C160.772 158.506 172.094 148.516 200.599 150.114L200.2 150.514ZM121.612 51.1467C183.15 7.19065 262.804 -9.59255 337.396 5.32585C385.701 14.8842 430.607 37.0843 467.532 69.6615C519.792 115.475 553.125 179.103 561.038 248.149C566.337 293.735 560.391 339.924 543.722 382.681C524.009 433.297 489.11 477.786 444.888 509.221C402.276 539.626 351.955 557.4 299.7 560.503C247.399 563.721 195.247 552.182 149.184 527.203L0 565.831L39.294 421.975C40.0932 420.244 38.8944 418.779 37.962 417.447C8.48342 364.826 -3.19718 304.087 4.662 244.287C9.84986 205.835 22.8696 168.856 42.9164 135.635C62.9631 102.415 89.6108 73.6595 121.212 51.1467H121.612ZM187.412 67.9299C142.79 87.9099 104.828 122.275 80.586 164.766C61.4052 198.066 50.7492 236.028 49.95 274.39C48.618 321.276 61.938 368.296 87.6456 407.59C88.9776 409.987 91.3752 412.518 90.3096 415.582L67.6656 498.699C96.0372 491.506 124.409 483.78 152.914 476.587C156.51 475.255 159.574 478.186 162.504 479.784C211.632 509.426 269.966 519.908 326.34 509.221C359.296 502.932 390.48 489.521 417.715 469.927C460.273 439.363 491.364 395.422 506.027 345.119C519.22 299.244 518.011 250.425 502.564 205.259C488.905 165.587 464.791 130.337 432.767 103.228C399.073 74.5979 357.893 56.2032 314.086 50.2142C271.462 44.4866 226.973 50.6139 187.546 68.4627L187.412 67.9299Z" fill="#FCFCFC"/>
</svg>
