<svg width="160" height="110" id="Layer_1" data-name="Layer 1" xmlns="http://www.w3.org/2000/svg" viewBox="0 0 1305.98 386"><defs><style>.cls-1{fill:#fff;}</style></defs><path class="cls-1" d="M293.53,189.53A108.4,108.4,0,0,1,185.11,298H47.82l12.37-54.21H177.08a54.21,54.21,0,0,0,0-108.42H76.7L93.2,47.78H23.89A23.89,23.89,0,0,1,23.89,0H154.64L138.13,81.11h47A108.42,108.42,0,0,1,293.53,189.53Z"/><path class="cls-1" d="M196,191.14a24.09,24.09,0,0,1-24.1,24.09H64.32L72.57,167h99.29A24.1,24.1,0,0,1,196,191.14Z"/><circle class="cls-1" cx="92.05" cy="358.9" r="27.1"/><circle class="cls-1" cx="208.09" cy="358.9" r="27.1"/><path class="cls-1" d="M369.58,286a81.65,81.65,0,0,1-32.66-30.49Q325.15,236,325.15,211.25T336.92,167a81.67,81.67,0,0,1,32.66-30.5q20.9-11,47.21-11t47,11A82,82,0,0,1,496.35,167q11.76,19.5,11.76,44.27t-11.76,44.27A82,82,0,0,1,463.84,286q-20.74,11-47,11T369.58,286Zm77.7-41.17q11.91-12.54,11.92-33.59t-11.92-33.59q-11.92-12.54-30.49-12.54t-30.65,12.54q-12.08,12.54-12.07,33.59t12.07,33.59q12.08,12.53,30.65,12.53T447.28,244.84Z"/><path class="cls-1" d="M640.61,286.47a49.42,49.42,0,0,1-17.49,7.9A87.42,87.42,0,0,1,601.6,297q-30,0-46.12-15.17t-16.1-44.58V91.13h48.29v40.56h41.18v37.14H587.67v67.8q0,10.53,5.27,16.25t15.17,5.73a33.21,33.21,0,0,0,19.81-6.19Z"/><path class="cls-1" d="M703.5,286a82.28,82.28,0,0,1-33.13-30.49Q658.46,236,658.46,211.25T670.37,167a82.3,82.3,0,0,1,33.13-30.5q21.19-11,47.83-11,26.31,0,46,11a65.23,65.23,0,0,1,28.64,31.43L788.48,188q-13-22.9-37.46-22.91-18.88,0-31.27,12.38t-12.38,33.75q0,21.36,12.38,33.74T751,257.37q24.76,0,37.46-22.91l37.46,20.44a66.55,66.55,0,0,1-28.64,31Q777.64,297,751.33,297,724.71,297,703.5,286Z"/><path class="cls-1" d="M1028.91,128V294.52H982.79V275.33q-18,21.68-52,21.67-23.53,0-42.57-10.53a75.3,75.3,0,0,1-29.87-30q-10.85-19.51-10.84-45.2t10.84-45.2a75.38,75.38,0,0,1,29.87-30q19-10.52,42.57-10.53,31.88,0,49.84,20.13V128ZM969.47,244.84q12.07-12.54,12.08-33.59t-12.08-33.59q-12.08-12.54-30.34-12.54-18.57,0-30.64,12.54t-12.08,33.59q0,21,12.08,33.59t30.64,12.53Q957.4,257.37,969.47,244.84Z"/><path class="cls-1" d="M1143,131.69q14.7-6.19,33.9-6.2v44.58q-8.06-.62-10.84-.62-20.74,0-32.5,11.61t-11.77,34.83v78.63h-48.29V128h46.12v22A53.69,53.69,0,0,1,1143,131.69Z"/><path class="cls-1" d="M1306,286.47a49.42,49.42,0,0,1-17.49,7.9A87.42,87.42,0,0,1,1267,297q-30,0-46.12-15.17t-16.1-44.58V91.13H1253v40.56h41.18v37.14H1253v67.8q0,10.53,5.26,16.25t15.17,5.73a33.24,33.24,0,0,0,19.82-6.19Z"/></svg>