<svg xmlns="http://www.w3.org/2000/svg" width="610" height="96" viewBox="0 0 610 96">
  <g id="Group_9" data-name="Group 9" transform="translate(-507.512 -248)">
    <path id="Path_9" data-name="Path 9" d="M7.9-18.565h5.452a13.534,13.534,0,0,0,3.83-.47,7.117,7.117,0,0,0,2.515-1.245,4.545,4.545,0,0,0,1.363-1.833,6.081,6.081,0,0,0,.423-2.28,5.955,5.955,0,0,0-.423-2.233,4.724,4.724,0,0,0-1.363-1.857,6.629,6.629,0,0,0-2.515-1.245,14.207,14.207,0,0,0-3.83-.447H7.9ZM4.512-33.276h9.682q5.076,0,8.014,2.209t2.938,6.674q0,4.465-2.937,6.7t-8.014,2.233H7.9V0H4.512ZM49.209-11a9.866,9.866,0,0,0-.588-3.431A8.248,8.248,0,0,0,46.953-17.2a7.836,7.836,0,0,0-2.609-1.857,8.393,8.393,0,0,0-3.455-.681,8.393,8.393,0,0,0-3.454.681A7.586,7.586,0,0,0,34.851-17.2a8.457,8.457,0,0,0-1.645,2.773A9.866,9.866,0,0,0,32.618-11a9.866,9.866,0,0,0,.588,3.431,8.457,8.457,0,0,0,1.645,2.773,7.586,7.586,0,0,0,2.585,1.856,8.393,8.393,0,0,0,3.454.681,8.393,8.393,0,0,0,3.455-.681,7.836,7.836,0,0,0,2.609-1.856,8.248,8.248,0,0,0,1.668-2.773A9.866,9.866,0,0,0,49.209-11Zm3.384,0a12,12,0,0,1-.87,4.606A11.08,11.08,0,0,1,49.3-2.726a11.023,11.023,0,0,1-3.689,2.42,12.429,12.429,0,0,1-4.724.87,12.3,12.3,0,0,1-4.676-.87,11.023,11.023,0,0,1-3.689-2.42A11.08,11.08,0,0,1,30.1-6.392,12,12,0,0,1,29.234-11,12,12,0,0,1,30.1-15.6a11.08,11.08,0,0,1,2.421-3.666,11.023,11.023,0,0,1,3.689-2.42,12.3,12.3,0,0,1,4.676-.869,12.429,12.429,0,0,1,4.724.869A11.023,11.023,0,0,1,49.3-19.27a11.08,11.08,0,0,1,2.42,3.666A12,12,0,0,1,52.593-11Zm6.58-11,5.076,17.86h.094L70.218-22h3.2l5.875,17.86h.094L84.459-22h3.666L81.169,0H77.691L71.863-18.048h-.094L65.941,0H62.463L55.507-22Zm50.1,9.306a7.04,7.04,0,0,0-1.88-5.1,6.969,6.969,0,0,0-5.264-1.95,7.506,7.506,0,0,0-2.914.587,8.2,8.2,0,0,0-2.467,1.574,7.9,7.9,0,0,0-1.692,2.256,5.816,5.816,0,0,0-.634,2.632ZM94.329-10.152a9.438,9.438,0,0,0,.8,3.1,8.2,8.2,0,0,0,1.739,2.515,8.181,8.181,0,0,0,2.491,1.668,7.6,7.6,0,0,0,3.055.611,7.84,7.84,0,0,0,4.3-1.151,8.606,8.606,0,0,0,2.749-2.655l2.4,1.974a11.923,11.923,0,0,1-4.348,3.572,12.157,12.157,0,0,1-5.1,1.081,11.7,11.7,0,0,1-4.535-.87,10.624,10.624,0,0,1-3.6-2.42,11.467,11.467,0,0,1-2.373-3.666A12,12,0,0,1,91.039-11a12.29,12.29,0,0,1,.846-4.606,11.151,11.151,0,0,1,2.35-3.666,10.806,10.806,0,0,1,3.525-2.42,10.941,10.941,0,0,1,4.371-.869,10.719,10.719,0,0,1,4.465.893,9.907,9.907,0,0,1,3.314,2.374,10.159,10.159,0,0,1,2.044,3.478,12.687,12.687,0,0,1,.705,4.253v1.41Zm24.3-4.982q0-1.457-.07-2.961T118.44-22H121.5v4.089h.094a6.837,6.837,0,0,1,.94-1.715,7.364,7.364,0,0,1,1.48-1.481,7.27,7.27,0,0,1,2.021-1.057,7.932,7.932,0,0,1,2.609-.4,8.421,8.421,0,0,1,2.3.282l-.611,3.055a5.219,5.219,0,0,0-1.786-.235,6.376,6.376,0,0,0-3.055.681,6.773,6.773,0,0,0-2.115,1.739,7.225,7.225,0,0,0-1.245,2.28,7.553,7.553,0,0,0-.4,2.35V0h-3.1Zm31.537,2.444a7.04,7.04,0,0,0-1.88-5.1,6.969,6.969,0,0,0-5.264-1.95,7.506,7.506,0,0,0-2.914.587,8.2,8.2,0,0,0-2.467,1.574,7.9,7.9,0,0,0-1.692,2.256,5.816,5.816,0,0,0-.635,2.632Zm-14.946,2.538a9.437,9.437,0,0,0,.8,3.1,8.2,8.2,0,0,0,1.739,2.515,8.181,8.181,0,0,0,2.491,1.668,7.6,7.6,0,0,0,3.055.611,7.84,7.84,0,0,0,4.3-1.151,8.605,8.605,0,0,0,2.749-2.655l2.4,1.974A11.923,11.923,0,0,1,148.4-.517,12.157,12.157,0,0,1,143.3.564a11.7,11.7,0,0,1-4.536-.87,10.624,10.624,0,0,1-3.6-2.42A11.467,11.467,0,0,1,132.8-6.392a12,12,0,0,1-.87-4.606,12.29,12.29,0,0,1,.846-4.606,11.151,11.151,0,0,1,2.35-3.666,10.806,10.806,0,0,1,3.525-2.42,10.941,10.941,0,0,1,4.371-.869,10.719,10.719,0,0,1,4.465.893,9.907,9.907,0,0,1,3.313,2.374,10.158,10.158,0,0,1,2.045,3.478,12.687,12.687,0,0,1,.705,4.253v1.41ZM161.069-11a9.866,9.866,0,0,0,.587,3.431,8.248,8.248,0,0,0,1.669,2.773,7.836,7.836,0,0,0,2.608,1.856,8.393,8.393,0,0,0,3.455.681,8.944,8.944,0,0,0,3.5-.681,8.641,8.641,0,0,0,2.8-1.856,8.4,8.4,0,0,0,1.833-2.773A8.922,8.922,0,0,0,178.177-11a8.922,8.922,0,0,0-.658-3.431,8.4,8.4,0,0,0-1.833-2.773,8.641,8.641,0,0,0-2.8-1.857,8.945,8.945,0,0,0-3.5-.681,8.393,8.393,0,0,0-3.455.681,7.836,7.836,0,0,0-2.608,1.857,8.248,8.248,0,0,0-1.669,2.773A9.866,9.866,0,0,0,161.069-11ZM181.138,0h-3.1V-3.666h-.094a8.071,8.071,0,0,1-1.786,1.927,11.089,11.089,0,0,1-2.162,1.316,10.343,10.343,0,0,1-2.326.752,11.859,11.859,0,0,1-2.279.235,12.429,12.429,0,0,1-4.724-.87,11.023,11.023,0,0,1-3.689-2.42,11.08,11.08,0,0,1-2.421-3.666A12,12,0,0,1,157.685-11a12,12,0,0,1,.869-4.606,11.08,11.08,0,0,1,2.421-3.666,11.023,11.023,0,0,1,3.689-2.42,12.429,12.429,0,0,1,4.724-.869,11.859,11.859,0,0,1,2.279.235,10.343,10.343,0,0,1,2.326.752,11.089,11.089,0,0,1,2.162,1.316,8.071,8.071,0,0,1,1.786,1.927h.094v-17.2h3.1Zm39.9-11a9.865,9.865,0,0,0-.588-3.431,8.248,8.248,0,0,0-1.668-2.773,7.836,7.836,0,0,0-2.609-1.857,8.393,8.393,0,0,0-3.454-.681,8.9,8.9,0,0,0-3.525.681,8.707,8.707,0,0,0-2.773,1.857,8.4,8.4,0,0,0-1.833,2.773A8.922,8.922,0,0,0,203.933-11a8.922,8.922,0,0,0,.658,3.431,8.4,8.4,0,0,0,1.833,2.773A8.707,8.707,0,0,0,209.2-2.937a8.9,8.9,0,0,0,3.525.681,8.392,8.392,0,0,0,3.454-.681,7.836,7.836,0,0,0,2.609-1.856,8.248,8.248,0,0,0,1.668-2.773A9.865,9.865,0,0,0,221.041-11ZM200.972-35.532h3.1v17.2h.094a8.071,8.071,0,0,1,1.786-1.927,11.089,11.089,0,0,1,2.162-1.316,10.343,10.343,0,0,1,2.327-.752,11.859,11.859,0,0,1,2.279-.235,12.429,12.429,0,0,1,4.723.869,11.023,11.023,0,0,1,3.689,2.42,11.08,11.08,0,0,1,2.421,3.666,12,12,0,0,1,.87,4.606,12,12,0,0,1-.87,4.606,11.08,11.08,0,0,1-2.421,3.666,11.023,11.023,0,0,1-3.689,2.42,12.429,12.429,0,0,1-4.723.87,11.859,11.859,0,0,1-2.279-.235,10.343,10.343,0,0,1-2.327-.752,11.089,11.089,0,0,1-2.162-1.316,8.071,8.071,0,0,1-1.786-1.927h-.094V0h-3.1ZM237.867-3.807,244.588-22h3.76l-11,27.73a11.356,11.356,0,0,1-2.514,4.042,6,6,0,0,1-4.395,1.5q-.705,0-1.434-.047a5.67,5.67,0,0,1-1.434-.282l.329-3.008a5,5,0,0,0,2.35.517,3.318,3.318,0,0,0,2.585-1.034,9.024,9.024,0,0,0,1.645-2.914l1.6-4.23L227.057-22h3.9Z" transform="translate(503 309.608)" fill="#707070"/>
    <g id="botcartLogo_Black" data-name="botcartLogo Black" transform="translate(793.434 248)">
      <path id="Path_1" data-name="Path 1" d="M72.616,46.888A26.817,26.817,0,0,1,45.794,73.722H11.83l3.06-13.411H43.808a13.411,13.411,0,0,0,0-26.822H18.975L23.057,11.82H5.91A5.91,5.91,0,1,1,5.91,0H38.256L34.172,20.066H45.8A26.821,26.821,0,0,1,72.616,46.883Z" fill="#231f20"/>
      <path id="Path_2" data-name="Path 2" d="M96.9,172.972a5.96,5.96,0,0,1-5.962,5.96H64.32L66.361,167H90.924a5.962,5.962,0,0,1,5.972,5.972Z" transform="translate(-48.408 -125.435)" fill="#231f20"/>
      <circle id="Ellipse_1" data-name="Ellipse 1" cx="6.704" cy="6.704" r="6.704" transform="translate(16.068 82.592)" fill="#231f20"/>
      <circle id="Ellipse_2" data-name="Ellipse 2" cx="6.704" cy="6.704" r="6.704" transform="translate(44.775 82.592)" fill="#231f20"/>
      <path id="Path_3" data-name="Path 3" d="M336.141,165.206a20.2,20.2,0,0,1-8.08-7.543,22.039,22.039,0,0,1,0-21.9,20.2,20.2,0,0,1,8.08-7.545,24.692,24.692,0,0,1,11.679-2.721,24.384,24.384,0,0,1,11.627,2.721,20.285,20.285,0,0,1,8.055,7.545,22.068,22.068,0,0,1,0,21.9,20.285,20.285,0,0,1-8.043,7.535,24.429,24.429,0,0,1-11.627,2.721A24.812,24.812,0,0,1,336.141,165.206Zm19.222-10.185a13.183,13.183,0,0,0,0-16.62,9.95,9.95,0,0,0-7.543-3.1,10.077,10.077,0,0,0-7.582,3.1,13.056,13.056,0,0,0,0,16.62,10.082,10.082,0,0,0,7.582,3.1,9.958,9.958,0,0,0,7.543-3.1Z" transform="translate(-244.425 -94.156)" fill="#231f20"/>
      <path id="Path_4" data-name="Path 4" d="M564.423,139.937a12.169,12.169,0,0,1-4.327,1.974,21.425,21.425,0,0,1-5.324.657q-7.421,0-11.41-3.79t-3.983-11.139V91.13h11.946v10.134h10.188v9.28H551.326v16.94a5.812,5.812,0,0,0,1.3,4.06,4.83,4.83,0,0,0,3.753,1.432,8.16,8.16,0,0,0,4.9-1.547Z" transform="translate(-405.501 -68.585)" fill="#231f20"/>
      <path id="Path_5" data-name="Path 5" d="M669.6,165.206a20.355,20.355,0,0,1-8.2-7.543,21.814,21.814,0,0,1,0-21.9,20.359,20.359,0,0,1,8.2-7.545,25.3,25.3,0,0,1,11.833-2.721,22.952,22.952,0,0,1,11.38,2.721A16.137,16.137,0,0,1,699.9,136l-9.275,4.965q-3.216-5.665-9.267-5.668a10.491,10.491,0,0,0-7.736,3.063,12.909,12.909,0,0,0,0,16.7,10.5,10.5,0,0,0,7.731,3.07q6.125,0,9.267-5.668l9.267,5.057a16.463,16.463,0,0,1-7.085,7.669,22.717,22.717,0,0,1-11.368,2.746A25.319,25.319,0,0,1,669.6,165.206Z" transform="translate(-494.993 -94.156)" fill="#231f20"/>
      <path id="Path_6" data-name="Path 6" d="M892.386,126.149v41.2h-11.41V162.6q-4.453,5.363-12.864,5.361a21.391,21.391,0,0,1-10.531-2.6,18.63,18.63,0,0,1-7.39-7.422,24.654,24.654,0,0,1,0-22.364,18.648,18.648,0,0,1,7.39-7.422,21.391,21.391,0,0,1,10.531-2.6q7.887,0,12.33,4.98v-4.371Zm-14.7,28.9a13.047,13.047,0,0,0,0-16.62,10.721,10.721,0,0,0-15.086,0,13.048,13.048,0,0,0,0,16.62,10.727,10.727,0,0,0,15.086,0Z" transform="translate(-637.1 -94.186)" fill="#231f20"/>
      <path id="Path_7" data-name="Path 7" d="M1090.694,127.024a21.491,21.491,0,0,1,8.387-1.534v11.029q-1.994-.153-2.682-.153-5.131,0-8.04,2.872t-2.912,8.617v19.452H1073.5v-41.2h11.41v5.443A13.284,13.284,0,0,1,1090.694,127.024Z" transform="translate(-806.939 -94.151)" fill="#231f20"/>
      <path id="Path_8" data-name="Path 8" d="M1229.821,139.937a12.171,12.171,0,0,1-4.327,1.974,21.426,21.426,0,0,1-5.321.657q-7.422,0-11.409-3.79t-3.983-11.139V91.13h11.929v10.134H1226.9v9.28h-10.188v16.94a5.819,5.819,0,0,0,1.3,4.06,4.825,4.825,0,0,0,3.753,1.432,8.167,8.167,0,0,0,4.9-1.547Z" transform="translate(-905.742 -68.585)" fill="#231f20"/>
    </g>
  </g>
</svg>
